<svg xmlns="http://www.w3.org/2000/svg" width="16" height="16" fill="none" viewBox="0 0 16 16">
    <path fill="#3C3C3C" stroke="#3C3C3C" d="M8.09 10.744c-.592 0-1.036-.14-1.36-.38-.212-.158-.393-.374-.532-.664l.255-.052c.125.224.293.412.505.556.333.224.727.308 1.132.308.31 0 .675-.079.979-.267.317-.196.6-.538.6-1.03 0-.288-.116-.527-.298-.705-.165-.163-.374-.265-.561-.336-.192-.073-.405-.13-.608-.18l-.204-.049c-.14-.033-.275-.066-.416-.104-.418-.112-.758-.242-.993-.435-.206-.17-.354-.406-.354-.828 0-.441.19-.752.48-.967.308-.227.743-.355 1.203-.355.513 0 .881.097 1.166.27.175.108.337.256.486.46l-.223.103c-.115-.14-.248-.266-.407-.367-.3-.19-.642-.26-1.022-.26-.239 0-.548.052-.817.2-.28.154-.57.45-.57.916 0 .297.143.523.325.677.165.138.368.225.547.287.185.064.393.118.593.168l.084.02c.177.045.352.088.528.14.412.12.754.263.991.47.214.185.365.442.365.874 0 .485-.211.851-.544 1.11-.343.266-.824.42-1.33.42z"/>
    <mask id="as6dupeu8a" fill="#fff">
        <rect width="14" height="14" x="1" y="1" rx="1"/>
    </mask>
    <rect width="14" height="14" x="1" y="1" stroke="#3C3C3C" stroke-miterlimit="3.864" stroke-width="2.6" mask="url(#as6dupeu8a)" rx="1"/>
</svg>
