<svg width="152" height="33" viewBox="0 0 152 33" fill="none" xmlns="http://www.w3.org/2000/svg">
    <path d="M11.758 18.77h2.12v2.286h-2.12v3.796H8.91v-3.796H1.54l-.083-1.735L8.817 7.79h2.94v10.98zm-7.313 0H8.91v-7.124l-.21.374-4.255 6.75zm22.442-1.101c0 2.453-.461 4.305-1.383 5.555-.914 1.242-2.309 1.863-4.184 1.863-1.843 0-3.234-.606-4.172-1.817-.93-1.218-1.406-3.02-1.43-5.402v-2.953c0-2.453.458-4.293 1.372-5.52.922-1.226 2.324-1.84 4.207-1.84 1.867 0 3.258.598 4.172 1.794.922 1.195 1.394 2.984 1.418 5.367v2.953zm-2.848-3.188c0-1.601-.219-2.773-.656-3.515-.438-.75-1.133-1.125-2.086-1.125-.93 0-1.613.355-2.05 1.066-.438.703-.669 1.805-.692 3.305v3.867c0 1.594.222 2.781.668 3.563.445.78 1.144 1.171 2.097 1.171.914 0 1.59-.359 2.028-1.078.437-.726.668-1.86.691-3.398V14.48zm15 4.29h2.121v2.285h-2.12v3.796H36.19v-3.796h-7.37l-.083-1.735 7.36-11.531h2.941v10.98zm-7.312 0h4.464v-7.126l-.21.376-4.254 6.75zm20.12-6.598.083 1.465c.937-1.133 2.168-1.7 3.691-1.7 2.64 0 3.984 1.512 4.031 4.536v8.378h-2.847v-8.214c0-.805-.176-1.399-.528-1.782-.343-.39-.91-.585-1.699-.585-1.148 0-2.004.519-2.566 1.558v9.023h-2.848v-12.68h2.684zm10.184 6.222c0-1.242.246-2.359.739-3.351.492-1 1.183-1.766 2.074-2.297.89-.539 1.914-.809 3.07-.809 1.711 0 3.098.551 4.16 1.653 1.07 1.101 1.649 2.562 1.735 4.383l.011.668c0 1.25-.242 2.367-.726 3.351-.477.985-1.164 1.746-2.063 2.285-.89.54-1.922.809-3.094.809-1.789 0-3.222-.594-4.3-1.781-1.07-1.196-1.606-2.786-1.606-4.77v-.14zm2.848.247c0 1.304.27 2.328.808 3.07.54.734 1.29 1.101 2.25 1.101.961 0 1.707-.375 2.239-1.125.539-.75.808-1.847.808-3.293 0-1.28-.277-2.296-.832-3.046-.546-.75-1.293-1.125-2.238-1.125-.93 0-1.668.37-2.215 1.113-.547.734-.82 1.836-.82 3.305zM79.797 9.09v3.082h2.238v2.11h-2.238v7.077c0 .485.094.836.281 1.055.195.21.54.316 1.031.316.329 0 .66-.039.997-.117v2.203c-.649.18-1.274.27-1.875.27-2.188 0-3.282-1.207-3.282-3.621v-7.184h-2.086v-2.11h2.086V9.092h2.848zm11.402 15.761v-10.57h-1.933v-2.11h1.933v-1.16c0-1.406.39-2.492 1.172-3.257.781-.766 1.875-1.149 3.281-1.149.5 0 1.032.07 1.594.211l-.07 2.227a5.61 5.61 0 0 0-1.09-.094c-1.36 0-2.04.7-2.04 2.098v1.125h2.579v2.11h-2.578v10.57h-2.848zm6.973-6.457c0-1.242.246-2.359.738-3.351.492-1 1.184-1.766 2.074-2.297.891-.539 1.914-.809 3.071-.809 1.711 0 3.097.551 4.16 1.653 1.07 1.101 1.648 2.562 1.734 4.383l.012.668c0 1.25-.242 2.367-.727 3.351-.476.985-1.164 1.746-2.062 2.285-.891.54-1.922.809-3.094.809-1.789 0-3.223-.594-4.3-1.781-1.071-1.196-1.606-2.786-1.606-4.77v-.14zm2.848.247c0 1.304.269 2.328.808 3.07.539.734 1.289 1.101 2.25 1.101.961 0 1.707-.375 2.238-1.125.539-.75.809-1.847.809-3.293 0-1.28-.277-2.296-.832-3.046-.547-.75-1.293-1.125-2.238-1.125-.93 0-1.668.37-2.215 1.113-.547.734-.82 1.836-.82 3.305zm19.031 4.968c-.836.985-2.024 1.477-3.563 1.477-1.375 0-2.418-.402-3.129-1.207-.703-.805-1.054-1.969-1.054-3.492v-8.215h2.847v8.18c0 1.609.668 2.414 2.004 2.414 1.383 0 2.317-.497 2.801-1.489v-9.105h2.848v12.68h-2.684l-.07-1.243zm8.297-11.437.082 1.465c.937-1.133 2.168-1.7 3.691-1.7 2.641 0 3.984 1.512 4.031 4.536v8.378h-2.847v-8.214c0-.805-.176-1.399-.528-1.782-.343-.39-.91-.585-1.699-.585-1.148 0-2.004.519-2.566 1.558v9.023h-2.848v-12.68h2.684zm10.183 6.246c0-1.953.453-3.52 1.36-4.7.906-1.187 2.121-1.78 3.644-1.78 1.344 0 2.43.468 3.258 1.406V6.852h2.848v18h-2.579l-.14-1.312c-.852 1.031-1.988 1.547-3.41 1.547-1.485 0-2.688-.598-3.61-1.793-.914-1.195-1.371-2.82-1.371-4.875zm2.848.246c0 1.29.246 2.297.738 3.023.5.72 1.207 1.079 2.121 1.079 1.164 0 2.016-.52 2.555-1.559v-5.414c-.523-1.016-1.367-1.524-2.531-1.524-.922 0-1.633.368-2.133 1.102-.5.727-.75 1.824-.75 3.293z" fill="#5C666F"/>
</svg>
