<svg width="80" height="54" viewBox="0 0 80 54" fill="none" xmlns="http://www.w3.org/2000/svg">
    <mask id="a" style="mask-type:alpha" maskUnits="userSpaceOnUse" x="0" y="0" width="80" height="54">
        <path d="M41.74.147c-12.445 0-20.37 4.573-23.579 13.595C8.328 15.069.722 23.517.722 33.709c0 11.108 9.037 20.145 20.145 20.145H62.38c9.317 0 16.898-7.568 16.898-16.87 0-7.24-4.6-13.621-11.34-15.961C65.172 8.848 54.361.146 41.74.146zm-6.45 22.99c1.022-.75 1.181-2.236.314-3.163a20.26 20.26 0 0 0-12.795-6.316c2.918-6.213 9.142-9.242 18.931-9.242 10.991 0 20.35 7.842 22.254 18.648l.238 1.35 1.33.345a12.626 12.626 0 0 1 9.446 12.224c0 6.95-5.666 12.602-12.629 12.602H21.206c-8.639 0-15.952-6.761-16.208-15.398-.267-8.972 6.956-16.356 15.87-16.356a15.95 15.95 0 0 1 11.602 5.041 2.14 2.14 0 0 0 1.562.677c.438 0 .88-.134 1.257-.412z" fill="#fff"/>
    </mask>
    <g mask="url(#a)">
        <path fill-rule="evenodd" clip-rule="evenodd" d="M41.74.147c-12.445 0-20.37 4.573-23.579 13.595C8.328 15.069.722 23.517.722 33.709c0 11.108 9.037 20.145 20.145 20.145H62.38c9.317 0 16.898-7.568 16.898-16.87 0-7.24-4.6-13.621-11.34-15.961C65.172 8.848 54.361.146 41.74.146zm-6.45 22.99c1.022-.75 1.181-2.236.314-3.163a20.26 20.26 0 0 0-12.795-6.316c2.918-6.213 9.142-9.242 18.931-9.242 10.991 0 20.35 7.842 22.254 18.648l.238 1.35 1.33.345a12.626 12.626 0 0 1 9.446 12.224c0 6.95-5.666 12.602-12.629 12.602H21.206c-8.639 0-15.952-6.761-16.208-15.398-.267-8.972 6.956-16.356 15.87-16.356a15.95 15.95 0 0 1 11.602 5.041 2.14 2.14 0 0 0 1.562.677c.438 0 .88-.134 1.257-.412z" fill="url(#b)"/>
    </g>
    <defs>
        <linearGradient id="b" x1=".722" y1="27" x2="79.277" y2="27" gradientUnits="userSpaceOnUse">
            <stop stop-color="#F2802F"/>
            <stop offset="1" stop-color="#DF1F26"/>
        </linearGradient>
    </defs>
</svg>
